<svg xmlns="http://www.w3.org/2000/svg" viewBox="0 0 338.86 96.13"><defs><style>.cls-1{font-size:36.32px;fill:#fc0;font-family:FuturaBT-Heavy, Futura Hv BT;font-weight:800;}.cls-2{font-size:19.13px;font-family:TwCenMT-Regular, Tw Cen MT;}.cls-2,.cls-4{fill:#fff;}.cls-3{fill:#7dbf65;}</style></defs><g id="Layer_2" data-name="Layer 2"><g id="Layer_1-2" data-name="Layer 1"><text class="cls-1" transform="translate(106.49 45.85)">Grüne Straße</text><text class="cls-2" transform="translate(108.34 65.84)">Architects &amp; Engineers</text><polygon class="cls-3" points="50.22 0 26.68 9.4 28.23 10.25 50.22 22.23 73.77 9.4 50.22 0"/><polygon class="cls-4" points="18.73 31.42 18.73 56.61 22.9 53.06 22.9 29.43 18.73 31.42"/><polygon class="cls-4" points="93.82 48.42 93.82 32.31 83.98 39.21 83.98 56.8 93.82 48.42"/><polygon class="cls-3" points="82.74 37.32 92.62 30.39 79.36 24.88 77.55 25.92 77.55 34.85 82.67 37.28 82.74 37.32"/><polygon class="cls-3" points="25.16 11.15 25.16 11.15 25.95 11.58 25.16 11.15"/><polygon class="cls-3" points="25.95 11.58 25.16 11.15 25.16 16.69 25.16 22.1 25.16 23.48 25.16 24.87 25.16 28.36 25.16 51.13 25.16 52.62 25.16 54.1 25.16 64.21 49.09 84.61 49.09 24.2 25.95 11.58"/><polygon class="cls-3" points="16.45 31.29 16.46 31.54 16.46 31.29 16.45 31.29"/><polygon class="cls-3" points="16.45 31.29 15.29 30.47 14.27 29.75 6.63 24.39 6.63 48.42 15.2 55.72 16.37 56.72 16.46 56.8 16.46 31.54 16.45 31.29"/><polygon class="cls-3" points="21.09 16.96 8.79 22.06 7.83 22.46 16.24 28.37 17.22 29.06 17.7 29.4 18.62 28.96 20.81 27.92 22.9 26.93 22.9 26.46 22.9 25.07 22.9 23.69 22.9 18 21.09 16.96"/><polygon class="cls-3" points="77.55 37.35 77.55 54.88 81.72 57.29 81.72 39.34 81.22 39.1 77.55 37.35"/><polygon class="cls-3" points="81.22 39.1 81.72 39.34 81.72 39.34 81.22 39.1"/><polygon class="cls-4" points="75.29 64.21 75.29 56.19 75.29 36.28 75.29 33.77 75.29 24.61 75.29 11.15 51.36 24.2 51.36 84.61 75.29 64.21"/><polygon class="cls-3" points="50.22 92.66 0 46.9 50.22 96.14 100.45 46.9 50.22 92.66"/></g></g></svg>